<svg aria-hidden="true" style="position: absolute; width: 0; height: 0; overflow: hidden;" version="1.1" xmlns="http://www.w3.org/2000/svg" xmlns:xlink="http://www.w3.org/1999/xlink">
<defs>
<symbol id="icon-arrow" viewBox="0 0 32 32">
<path d="M27.766 17.957c-0.174-1.303-0.286-2.466-0.337-3.49-0.022-1.040 0.017-1.94 0.119-2.7l-25.293 14.603-1.197-2.073 25.293-14.603c-0.728-0.325-1.537-0.758-2.426-1.297-0.861-0.556-1.803-1.218-2.825-1.988l1.519-0.877c3.209 1.349 6.143 2.024 8.804 2.023l0.513 0.888c-1.35 2.271-2.233 5.149-2.65 8.636l-1.519 0.877z"></path>
</symbol>
<symbol id="icon-close" viewBox="0 0 32 32">
<path stroke-linejoin="round" stroke-linecap="round" stroke-miterlimit="4" stroke-width="2.1818" d="M24 8l-16 16"></path>
<path stroke-linejoin="round" stroke-linecap="round" stroke-miterlimit="4" stroke-width="2.1818" d="M8 8l16 16"></path>
</symbol>
<symbol id="icon-facebook" viewBox="0 0 32 32">
<path d="M19.52 4.64c0.24 0 0.48 0 0.96 0v3.6c-0.24 0-0.72 0-1.2 0s-0.96 0-1.2 0.24c-0.24 0.24-0.24 0.48-0.24 1.040 0 0.48 0 0.8 0 1.28h2.64v3.040h-2.64v13.2h-4.080v-13.28h-2.16v-3.040h2.16v-1.040c0-1.76 0.24-3.040 0.72-3.6 0.72-1.040 2.16-1.52 4.32-1.52 0.24 0.080 0.48 0.080 0.72 0.080z"></path>
</symbol>
<symbol id="icon-instagram" viewBox="0 0 32 32">
<path d="M28.717 10.756c-0.016-1.074-0.215-2.14-0.596-3.145-0.667-1.716-2.024-3.073-3.743-3.737-0.994-0.373-2.044-0.573-3.108-0.596-1.368-0.061-1.801-0.078-5.273-0.078s-3.917 0-5.274 0.078c-1.062 0.023-2.112 0.223-3.106 0.596-1.719 0.664-3.078 2.021-3.743 3.737-0.374 0.992-0.576 2.041-0.596 3.101-0.061 1.367-0.080 1.8-0.080 5.265s0 3.909 0.080 5.265c0.021 1.062 0.222 2.109 0.596 3.104 0.667 1.714 2.024 3.071 3.744 3.735 0.989 0.386 2.040 0.605 3.106 0.639 1.369 0.061 1.803 0.080 5.274 0.080s3.916 0 5.274-0.080c1.062-0.021 2.113-0.221 3.108-0.595 1.719-0.666 3.076-2.022 3.743-3.737 0.374-0.994 0.574-2.041 0.596-3.104 0.061-1.365 0.080-1.798 0.080-5.265-0.003-3.466-0.003-3.906-0.082-5.264zM15.99 22.531c-3.631 0-6.572-2.936-6.572-6.561s2.941-6.561 6.572-6.561c3.628 0 6.572 2.936 6.572 6.561s-2.944 6.561-6.572 6.561zM22.823 10.696c-0.849 0-1.532-0.684-1.532-1.53s0.684-1.53 1.532-1.53c0.846 0 1.531 0.684 1.531 1.53s-0.685 1.53-1.531 1.53z"></path>
<path d="M15.992 19.976c2.211 0 4.004-1.793 4.004-4.004s-1.793-4.004-4.004-4.004c-2.211 0-4.004 1.793-4.004 4.004s1.793 4.004 4.004 4.004z"></path>
</symbol>
<symbol id="icon-logo" viewBox="0 0 32 32">
<path d="M13.992 11.937h-0.998v-1.012h0.998v1.012z"></path>
<path d="M12.994 11.937h-0.998v-1.012h0.998v1.012z"></path>
<path d="M8.004 11.937h-0.998v-1.012h0.998v1.012z"></path>
<path d="M7.006 11.937h-0.998v-1.012h0.998v1.012z"></path>
<path d="M6.008 11.937h-0.998v-1.012h0.998v1.012z"></path>
<path d="M25.969 10.925h-0.998v-1.012h0.998v1.012z"></path>
<path d="M24.971 10.925h-0.998v-1.012h0.998v1.012z"></path>
<path d="M17.984 10.925h-0.998v-1.012h0.998v1.012z"></path>
<path d="M16.986 10.925h-0.998v-1.012h0.998v1.012z"></path>
<path d="M14.99 10.925h-0.998v-1.012h0.998v1.012z"></path>
<path d="M13.992 10.925h-0.998v-1.012h0.998v1.012z"></path>
<path d="M7.006 10.925h-0.998v-1.012h0.998v1.012z"></path>
<path d="M6.008 10.925h-0.998v-1.012h0.998v1.012z"></path>
<path d="M25.969 9.913h-0.998v-1.012h0.998v1.012z"></path>
<path d="M16.986 9.913h-0.998v-1.012h0.998v1.012z"></path>
<path d="M14.99 9.913h-0.998v-1.012h0.998v1.012z"></path>
<path d="M6.008 9.913h-0.998v-1.012h0.998v1.012z"></path>
<path d="M30.959 8.901h-0.998v-1.012h0.998v1.012z"></path>
<path d="M1.018 8.901h-0.998v-1.012h0.998v1.012z"></path>
<path d="M30.959 7.889h-0.998v-1.012h0.998v1.012z"></path>
<path d="M29.961 7.889h-0.998v-1.012h0.998v1.012z"></path>
<path d="M20.979 7.889h-0.998v-1.012h0.998v1.012z"></path>
<path d="M19.98 7.889h-0.998v-1.012h0.998v1.012z"></path>
<path d="M18.982 7.889h-0.998v-1.012h0.998v1.012z"></path>
<path d="M12.994 7.889h-0.998v-1.012h0.998v1.012z"></path>
<path d="M11.996 7.889h-0.998v-1.012h0.998v1.012z"></path>
<path d="M10.998 7.889h-0.998v-1.012h0.998v1.012z"></path>
<path d="M2.016 7.889h-0.998v-1.012h0.998v1.012z"></path>
<path d="M1.018 7.889h-0.998v-1.012h0.998v1.012z"></path>
<path d="M30.959 6.877h-0.998v-1.012h0.998v1.012z"></path>
<path d="M29.961 6.877h-0.998v-1.012h0.998v1.012z"></path>
<path d="M28.963 6.877h-0.998v-1.012h0.998v1.012z"></path>
<path d="M21.977 6.877h-0.998v-1.012h0.998v1.012z"></path>
<path d="M20.979 6.877h-0.998v-1.012h0.998v1.012z"></path>
<path d="M19.98 6.877h-0.998v-1.012h0.998v1.012z"></path>
<path d="M16.986 6.877h-0.998v-1.012h0.998v1.012z"></path>
<path d="M14.99 6.877h-0.998v-1.012h0.998v1.012z"></path>
<path d="M11.996 6.877h-0.998v-1.012h0.998v1.012z"></path>
<path d="M10.998 6.877h-0.998v-1.012h0.998v1.012z"></path>
<path d="M10 6.877h-0.998v-1.012h0.998v1.012z"></path>
<path d="M3.014 6.877h-0.998v-1.012h0.998v1.012z"></path>
<path d="M2.016 6.877h-0.998v-1.012h0.998v1.012z"></path>
<path d="M1.018 6.877h-0.998v-1.012h0.998v1.012z"></path>
<path d="M29.961 5.866h-0.998v-1.012h0.998v1.012z"></path>
<path d="M28.963 5.866h-0.998v-1.012h0.998v1.012z"></path>
<path d="M27.965 5.866h-0.998v-1.012h0.998v1.012z"></path>
<path d="M22.975 5.866h-0.998v-1.012h0.998v1.012z"></path>
<path d="M21.977 5.866h-0.998v-1.012h0.998v1.012z"></path>
<path d="M20.979 5.866h-0.998v-1.012h0.998v1.012z"></path>
<path d="M17.984 5.866h-0.998v-1.012h0.998v1.012z"></path>
<path d="M16.986 5.866h-0.998v-1.012h0.998v1.012z"></path>
<path d="M14.99 5.866h-0.998v-1.012h0.998v1.012z"></path>
<path d="M13.992 5.866h-0.998v-1.012h0.998v1.012z"></path>
<path d="M10.998 5.866h-0.998v-1.012h0.998v1.012z"></path>
<path d="M10 5.866h-0.998v-1.012h0.998v1.012z"></path>
<path d="M9.002 5.866h-0.998v-1.012h0.998v1.012z"></path>
<path d="M4.012 5.866h-0.998v-1.012h0.998v1.012z"></path>
<path d="M3.014 5.866h-0.998v-1.012h0.998v1.012z"></path>
<path d="M2.016 5.866h-0.998v-1.012h0.998v1.012z"></path>
<path d="M28.963 4.854h-0.998v-1.012h0.998v1.012z"></path>
<path d="M27.965 4.854h-0.998v-1.012h0.998v1.012z"></path>
<path d="M26.967 4.854h-0.998v-1.012h0.998v1.012z"></path>
<path d="M18.982 4.854h-0.998v-1.012h0.998v1.012z"></path>
<path d="M17.984 4.854h-0.998v-1.012h0.998v1.012z"></path>
<path d="M16.986 4.854h-0.998v-1.012h0.998v1.012z"></path>
<path d="M14.99 4.854h-0.998v-1.012h0.998v1.012z"></path>
<path d="M13.992 4.854h-0.998v-1.012h0.998v1.012z"></path>
<path d="M12.994 4.854h-0.998v-1.012h0.998v1.012z"></path>
<path d="M5.010 4.854h-0.998v-1.012h0.998v1.012z"></path>
<path d="M4.012 4.854h-0.998v-1.012h0.998v1.012z"></path>
<path d="M3.014 4.854h-0.998v-1.012h0.998v1.012z"></path>
<path d="M31.957 3.842h-0.998v-1.012h0.998v1.012z"></path>
<path d="M27.965 3.842h-0.998v-1.012h0.998v1.012z"></path>
<path d="M26.967 3.842h-0.998v-1.012h0.998v1.012z"></path>
<path d="M25.969 3.842h-0.998v-1.012h0.998v1.012z"></path>
<path d="M18.982 3.842h-0.998v-1.012h0.998v1.012z"></path>
<path d="M17.984 3.842h-0.998v-1.012h0.998v1.012z"></path>
<path d="M13.992 3.842h-0.998v-1.012h0.998v1.012z"></path>
<path d="M12.994 3.842h-0.998v-1.012h0.998v1.012z"></path>
<path d="M6.008 3.842h-0.998v-1.012h0.998v1.012z"></path>
<path d="M5.010 3.842h-0.998v-1.012h0.998v1.012z"></path>
<path d="M4.012 3.842h-0.998v-1.012h0.998v1.012z"></path>
<path d="M31.957 2.83h-0.998v-1.012h0.998v1.012z"></path>
<path d="M30.959 2.83h-0.998v-1.012h0.998v1.012z"></path>
<path d="M26.967 2.83h-0.998v-1.012h0.998v1.012z"></path>
<path d="M25.969 2.83h-0.998v-1.012h0.998v1.012z"></path>
<path d="M24.971 2.83h-0.998v-1.012h0.998v1.012z"></path>
<path d="M18.982 2.83h-0.998v-1.012h0.998v1.012z"></path>
<path d="M12.994 2.83h-0.998v-1.012h0.998v1.012z"></path>
<path d="M7.006 2.83h-0.998v-1.012h0.998v1.012z"></path>
<path d="M6.008 2.83h-0.998v-1.012h0.998v1.012z"></path>
<path d="M5.010 2.83h-0.998v-1.012h0.998v1.012z"></path>
<path d="M1.018 2.83h-0.998v-1.012h0.998v1.012z"></path>
</symbol>
<symbol id="icon-nav" viewBox="0 0 32 32">
<path stroke-linejoin="miter" stroke-linecap="round" stroke-miterlimit="4" stroke-width="2.1818" d="M5.961 8.628h24.949"></path>
<path stroke-linejoin="miter" stroke-linecap="round" stroke-miterlimit="4" stroke-width="2.1818" d="M5.961 21.851h24.949"></path>
<path stroke-linejoin="miter" stroke-linecap="round" stroke-miterlimit="4" stroke-width="2.1818" d="M13.613 15.24h17.296"></path>
</symbol>
<symbol id="icon-star" viewBox="0 0 32 32">
<path d="M15.434 0.333c0.251-0.437 0.881-0.437 1.133 0l1.84 3.203c0.19 0.33 0.621 0.429 0.935 0.214l3.081-2.107c0.418-0.286 0.987-0.008 1.020 0.496l0.239 3.642c0.025 0.383 0.374 0.662 0.754 0.602l3.69-0.584c0.504-0.080 0.9 0.423 0.706 0.894l-1.386 3.36c-0.148 0.359 0.048 0.767 0.421 0.876l3.555 1.036c0.493 0.144 0.635 0.773 0.252 1.115l-2.731 2.433c-0.291 0.26-0.291 0.715 0 0.975l2.731 2.433c0.383 0.341 0.241 0.971-0.252 1.115l-3.555 1.036c-0.373 0.109-0.569 0.517-0.421 0.876l1.386 3.36c0.194 0.471-0.202 0.974-0.706 0.894l-3.69-0.584c-0.38-0.060-0.729 0.219-0.754 0.602l-0.239 3.642c-0.033 0.505-0.603 0.782-1.020 0.496l-3.081-2.107c-0.314-0.215-0.745-0.116-0.935 0.214l-1.84 3.203c-0.251 0.437-0.881 0.437-1.133 0l-1.84-3.203c-0.19-0.33-0.621-0.429-0.935-0.214l-3.081 2.107c-0.418 0.286-0.987 0.009-1.020-0.496l-0.239-3.642c-0.025-0.383-0.374-0.662-0.754-0.602l-3.69 0.584c-0.504 0.080-0.9-0.423-0.706-0.894l1.386-3.36c0.148-0.359-0.048-0.767-0.421-0.876l-3.555-1.036c-0.493-0.144-0.635-0.773-0.252-1.115l2.731-2.433c0.291-0.26 0.291-0.715 0-0.975l-2.731-2.433c-0.383-0.341-0.241-0.971 0.252-1.115l3.555-1.036c0.373-0.109 0.569-0.517 0.421-0.876l-1.386-3.36c-0.194-0.471 0.202-0.974 0.706-0.894l3.69 0.584c0.38 0.060 0.729-0.219 0.754-0.602l0.239-3.642c0.033-0.505 0.603-0.782 1.020-0.496l3.081 2.107c0.314 0.215 0.745 0.116 0.935-0.214l1.84-3.203z"></path>
</symbol>
<symbol id="icon-youtube" viewBox="0 0 32 32">
<path d="M24.24 6c-1.36-0.080-4.16-0.16-8.4-0.16h-0.56c-4.080 0-6.8 0.080-8.16 0.24-1.84 0.16-3.12 0.64-3.84 1.28-0.64 0.56-1.12 1.6-1.28 2.96-0.080 0.88-0.16 2.72-0.16 5.52v0.4c0 2.64 0.080 4.48 0.24 5.36 0.24 1.28 0.64 2.24 1.44 2.8 0.8 0.64 2.16 1.040 4.080 1.2 1.36 0.080 4.16 0.16 8.4 0.16h0.56c4.080 0 6.8-0.080 8.16-0.24 1.84-0.16 3.12-0.64 3.84-1.28 0.64-0.56 1.12-1.6 1.28-2.96 0.080-0.88 0.16-2.72 0.16-5.52v-0.4c0-2.64-0.080-4.48-0.24-5.36-0.24-1.28-0.64-2.24-1.44-2.8-0.8-0.64-2.16-1.040-4.080-1.2zM21.12 15.84l-8.8 5.28v-10.56l8.8 5.28z"></path>
</symbol>
</defs>
</svg>
