<svg aria-hidden="true" style="position: absolute; width: 0; height: 0; overflow: hidden;" version="1.1" xmlns="http://www.w3.org/2000/svg" xmlns:xlink="http://www.w3.org/1999/xlink">
<defs>
<symbol id="icon-logo" viewBox="0 0 36 32">
<path fill="#ecd979" style="fill: var(--color1, #ecd979)" d="M15.786 11.416h-1.126v-1.142h1.126v1.142z"></path>
<path fill="#ecd979" style="fill: var(--color1, #ecd979)" d="M14.66 11.416h-1.126v-1.142h1.126v1.142z"></path>
<path fill="#ecd979" style="fill: var(--color1, #ecd979)" d="M9.030 11.416h-1.126v-1.142h1.126v1.142z"></path>
<path fill="#ecd979" style="fill: var(--color1, #ecd979)" d="M7.904 11.416h-1.126v-1.142h1.126v1.142z"></path>
<path fill="#ecd979" style="fill: var(--color1, #ecd979)" d="M6.778 11.416h-1.126v-1.142h1.126v1.142z"></path>
<path fill="#ecd979" style="fill: var(--color1, #ecd979)" d="M29.298 10.274h-1.126v-1.142h1.126v1.142z"></path>
<path fill="#ecd979" style="fill: var(--color1, #ecd979)" d="M28.172 10.274h-1.126v-1.142h1.126v1.142z"></path>
<path fill="#ecd979" style="fill: var(--color1, #ecd979)" d="M20.29 10.274h-1.126v-1.142h1.126v1.142z"></path>
<path fill="#ecd979" style="fill: var(--color1, #ecd979)" d="M19.164 10.274h-1.126v-1.142h1.126v1.142z"></path>
<path fill="#ecd979" style="fill: var(--color1, #ecd979)" d="M16.912 10.274h-1.126v-1.142h1.126v1.142z"></path>
<path fill="#ecd979" style="fill: var(--color1, #ecd979)" d="M15.786 10.274h-1.126v-1.142h1.126v1.142z"></path>
<path fill="#ecd979" style="fill: var(--color1, #ecd979)" d="M7.904 10.274h-1.126v-1.142h1.126v1.142z"></path>
<path fill="#ecd979" style="fill: var(--color1, #ecd979)" d="M6.778 10.274h-1.126v-1.142h1.126v1.142z"></path>
<path fill="#ecd979" style="fill: var(--color1, #ecd979)" d="M29.298 9.133h-1.126v-1.142h1.126v1.142z"></path>
<path fill="#ecd979" style="fill: var(--color1, #ecd979)" d="M19.164 9.133h-1.126v-1.142h1.126v1.142z"></path>
<path fill="#ecd979" style="fill: var(--color1, #ecd979)" d="M16.912 9.133h-1.126v-1.142h1.126v1.142z"></path>
<path fill="#ecd979" style="fill: var(--color1, #ecd979)" d="M6.778 9.133h-1.126v-1.142h1.126v1.142z"></path>
<path fill="#ecd979" style="fill: var(--color1, #ecd979)" d="M34.928 7.991h-1.126v-1.142h1.126v1.142z"></path>
<path fill="#ecd979" style="fill: var(--color1, #ecd979)" d="M1.148 7.991h-1.126v-1.142h1.126v1.142z"></path>
<path fill="#ecd979" style="fill: var(--color1, #ecd979)" d="M34.928 6.849h-1.126v-1.142h1.126v1.142z"></path>
<path fill="#ecd979" style="fill: var(--color1, #ecd979)" d="M33.802 6.849h-1.126v-1.142h1.126v1.142z"></path>
<path fill="#ecd979" style="fill: var(--color1, #ecd979)" d="M23.668 6.849h-1.126v-1.142h1.126v1.142z"></path>
<path fill="#ecd979" style="fill: var(--color1, #ecd979)" d="M22.542 6.849h-1.126v-1.142h1.126v1.142z"></path>
<path fill="#ecd979" style="fill: var(--color1, #ecd979)" d="M21.416 6.849h-1.126v-1.142h1.126v1.142z"></path>
<path fill="#ecd979" style="fill: var(--color1, #ecd979)" d="M14.66 6.849h-1.126v-1.142h1.126v1.142z"></path>
<path fill="#ecd979" style="fill: var(--color1, #ecd979)" d="M13.534 6.849h-1.126v-1.142h1.126v1.142z"></path>
<path fill="#ecd979" style="fill: var(--color1, #ecd979)" d="M12.408 6.849h-1.126v-1.142h1.126v1.142z"></path>
<path fill="#ecd979" style="fill: var(--color1, #ecd979)" d="M2.274 6.849h-1.126v-1.142h1.126v1.142z"></path>
<path fill="#ecd979" style="fill: var(--color1, #ecd979)" d="M1.148 6.849h-1.126v-1.142h1.126v1.142z"></path>
<path fill="#ecd979" style="fill: var(--color1, #ecd979)" d="M34.928 5.708h-1.126v-1.142h1.126v1.142z"></path>
<path fill="#ecd979" style="fill: var(--color1, #ecd979)" d="M33.802 5.708h-1.126v-1.142h1.126v1.142z"></path>
<path fill="#ecd979" style="fill: var(--color1, #ecd979)" d="M32.676 5.708h-1.126v-1.142h1.126v1.142z"></path>
<path fill="#ecd979" style="fill: var(--color1, #ecd979)" d="M24.794 5.708h-1.126v-1.142h1.126v1.142z"></path>
<path fill="#ecd979" style="fill: var(--color1, #ecd979)" d="M23.668 5.708h-1.126v-1.142h1.126v1.142z"></path>
<path fill="#ecd979" style="fill: var(--color1, #ecd979)" d="M22.542 5.708h-1.126v-1.142h1.126v1.142z"></path>
<path fill="#ecd979" style="fill: var(--color1, #ecd979)" d="M19.164 5.708h-1.126v-1.142h1.126v1.142z"></path>
<path fill="#ecd979" style="fill: var(--color1, #ecd979)" d="M16.912 5.708h-1.126v-1.142h1.126v1.142z"></path>
<path fill="#ecd979" style="fill: var(--color1, #ecd979)" d="M13.534 5.708h-1.126v-1.142h1.126v1.142z"></path>
<path fill="#ecd979" style="fill: var(--color1, #ecd979)" d="M12.408 5.708h-1.126v-1.142h1.126v1.142z"></path>
<path fill="#ecd979" style="fill: var(--color1, #ecd979)" d="M11.282 5.708h-1.126v-1.142h1.126v1.142z"></path>
<path fill="#ecd979" style="fill: var(--color1, #ecd979)" d="M3.4 5.708h-1.126v-1.142h1.126v1.142z"></path>
<path fill="#ecd979" style="fill: var(--color1, #ecd979)" d="M2.274 5.708h-1.126v-1.142h1.126v1.142z"></path>
<path fill="#ecd979" style="fill: var(--color1, #ecd979)" d="M1.148 5.708h-1.126v-1.142h1.126v1.142z"></path>
<path fill="#ecd979" style="fill: var(--color1, #ecd979)" d="M33.802 4.566h-1.126v-1.142h1.126v1.142z"></path>
<path fill="#ecd979" style="fill: var(--color1, #ecd979)" d="M32.676 4.566h-1.126v-1.142h1.126v1.142z"></path>
<path fill="#ecd979" style="fill: var(--color1, #ecd979)" d="M31.55 4.566h-1.126v-1.142h1.126v1.142z"></path>
<path fill="#ecd979" style="fill: var(--color1, #ecd979)" d="M25.92 4.566h-1.126v-1.142h1.126v1.142z"></path>
<path fill="#ecd979" style="fill: var(--color1, #ecd979)" d="M24.794 4.566h-1.126v-1.142h1.126v1.142z"></path>
<path fill="#ecd979" style="fill: var(--color1, #ecd979)" d="M23.668 4.566h-1.126v-1.142h1.126v1.142z"></path>
<path fill="#ecd979" style="fill: var(--color1, #ecd979)" d="M20.29 4.566h-1.126v-1.142h1.126v1.142z"></path>
<path fill="#ecd979" style="fill: var(--color1, #ecd979)" d="M19.164 4.566h-1.126v-1.142h1.126v1.142z"></path>
<path fill="#ecd979" style="fill: var(--color1, #ecd979)" d="M16.912 4.566h-1.126v-1.142h1.126v1.142z"></path>
<path fill="#ecd979" style="fill: var(--color1, #ecd979)" d="M15.786 4.566h-1.126v-1.142h1.126v1.142z"></path>
<path fill="#ecd979" style="fill: var(--color1, #ecd979)" d="M12.408 4.566h-1.126v-1.142h1.126v1.142z"></path>
<path fill="#ecd979" style="fill: var(--color1, #ecd979)" d="M11.282 4.566h-1.126v-1.142h1.126v1.142z"></path>
<path fill="#ecd979" style="fill: var(--color1, #ecd979)" d="M10.156 4.566h-1.126v-1.142h1.126v1.142z"></path>
<path fill="#ecd979" style="fill: var(--color1, #ecd979)" d="M4.526 4.566h-1.126v-1.142h1.126v1.142z"></path>
<path fill="#ecd979" style="fill: var(--color1, #ecd979)" d="M3.4 4.566h-1.126v-1.142h1.126v1.142z"></path>
<path fill="#ecd979" style="fill: var(--color1, #ecd979)" d="M2.274 4.566h-1.126v-1.142h1.126v1.142z"></path>
<path fill="#ecd979" style="fill: var(--color1, #ecd979)" d="M32.676 3.425h-1.126v-1.142h1.126v1.142z"></path>
<path fill="#ecd979" style="fill: var(--color1, #ecd979)" d="M31.55 3.425h-1.126v-1.142h1.126v1.142z"></path>
<path fill="#ecd979" style="fill: var(--color1, #ecd979)" d="M30.424 3.425h-1.126v-1.142h1.126v1.142z"></path>
<path fill="#ecd979" style="fill: var(--color1, #ecd979)" d="M21.416 3.425h-1.126v-1.142h1.126v1.142z"></path>
<path fill="#ecd979" style="fill: var(--color1, #ecd979)" d="M20.29 3.425h-1.126v-1.142h1.126v1.142z"></path>
<path fill="#ecd979" style="fill: var(--color1, #ecd979)" d="M19.164 3.425h-1.126v-1.142h1.126v1.142z"></path>
<path fill="#ecd979" style="fill: var(--color1, #ecd979)" d="M16.912 3.425h-1.126v-1.142h1.126v1.142z"></path>
<path fill="#ecd979" style="fill: var(--color1, #ecd979)" d="M15.786 3.425h-1.126v-1.142h1.126v1.142z"></path>
<path fill="#ecd979" style="fill: var(--color1, #ecd979)" d="M14.66 3.425h-1.126v-1.142h1.126v1.142z"></path>
<path fill="#ecd979" style="fill: var(--color1, #ecd979)" d="M5.652 3.425h-1.126v-1.142h1.126v1.142z"></path>
<path fill="#ecd979" style="fill: var(--color1, #ecd979)" d="M4.526 3.425h-1.126v-1.142h1.126v1.142z"></path>
<path fill="#ecd979" style="fill: var(--color1, #ecd979)" d="M3.4 3.425h-1.126v-1.142h1.126v1.142z"></path>
<path fill="#ecd979" style="fill: var(--color1, #ecd979)" d="M36.054 2.283h-1.126v-1.142h1.126v1.142z"></path>
<path fill="#ecd979" style="fill: var(--color1, #ecd979)" d="M31.55 2.283h-1.126v-1.142h1.126v1.142z"></path>
<path fill="#ecd979" style="fill: var(--color1, #ecd979)" d="M30.424 2.283h-1.126v-1.142h1.126v1.142z"></path>
<path fill="#ecd979" style="fill: var(--color1, #ecd979)" d="M29.298 2.283h-1.126v-1.142h1.126v1.142z"></path>
<path fill="#ecd979" style="fill: var(--color1, #ecd979)" d="M21.416 2.283h-1.126v-1.142h1.126v1.142z"></path>
<path fill="#ecd979" style="fill: var(--color1, #ecd979)" d="M20.29 2.283h-1.126v-1.142h1.126v1.142z"></path>
<path fill="#ecd979" style="fill: var(--color1, #ecd979)" d="M15.786 2.283h-1.126v-1.142h1.126v1.142z"></path>
<path fill="#ecd979" style="fill: var(--color1, #ecd979)" d="M14.66 2.283h-1.126v-1.142h1.126v1.142z"></path>
<path fill="#ecd979" style="fill: var(--color1, #ecd979)" d="M6.778 2.283h-1.126v-1.142h1.126v1.142z"></path>
<path fill="#ecd979" style="fill: var(--color1, #ecd979)" d="M5.652 2.283h-1.126v-1.142h1.126v1.142z"></path>
<path fill="#ecd979" style="fill: var(--color1, #ecd979)" d="M4.526 2.283h-1.126v-1.142h1.126v1.142z"></path>
<path fill="#ecd979" style="fill: var(--color1, #ecd979)" d="M36.054 1.142h-1.126v-1.142h1.126v1.142z"></path>
<path fill="#ecd979" style="fill: var(--color1, #ecd979)" d="M34.928 1.142h-1.126v-1.142h1.126v1.142z"></path>
<path fill="#ecd979" style="fill: var(--color1, #ecd979)" d="M30.424 1.142h-1.126v-1.142h1.126v1.142z"></path>
<path fill="#ecd979" style="fill: var(--color1, #ecd979)" d="M29.298 1.142h-1.126v-1.142h1.126v1.142z"></path>
<path fill="#ecd979" style="fill: var(--color1, #ecd979)" d="M28.172 1.142h-1.126v-1.142h1.126v1.142z"></path>
<path fill="#ecd979" style="fill: var(--color1, #ecd979)" d="M21.416 1.142h-1.126v-1.142h1.126v1.142z"></path>
<path fill="#ecd979" style="fill: var(--color1, #ecd979)" d="M14.66 1.142h-1.126v-1.142h1.126v1.142z"></path>
<path fill="#ecd979" style="fill: var(--color1, #ecd979)" d="M7.904 1.142h-1.126v-1.142h1.126v1.142z"></path>
<path fill="#ecd979" style="fill: var(--color1, #ecd979)" d="M6.778 1.142h-1.126v-1.142h1.126v1.142z"></path>
<path fill="#ecd979" style="fill: var(--color1, #ecd979)" d="M5.652 1.142h-1.126v-1.142h1.126v1.142z"></path>
<path fill="#ecd979" style="fill: var(--color1, #ecd979)" d="M1.148 1.142h-1.126v-1.142h1.126v1.142z"></path>
</symbol>
</defs>
</svg>
